<svg width="50" height="50" viewBox="0 0 50 50" fill="none" xmlns="http://www.w3.org/2000/svg">
<path fill-rule="evenodd" clip-rule="evenodd" d="M39.0716 10.8765H10.8765C9.28459 10.8765 7.99412 12.1669 7.99412 13.7588V36.2412C7.99412 37.8331 9.28459 39.1235 10.8765 39.1235H39.0716C40.6635 39.1235 41.954 37.8331 41.954 36.2412V13.7588C41.954 12.1669 40.6635 10.8765 39.0716 10.8765ZM10.8765 9.14706C8.32947 9.14706 6.26471 11.2118 6.26471 13.7588V36.2412C6.26471 38.7882 8.32947 40.8529 10.8765 40.8529H39.0716C41.6186 40.8529 43.6834 38.7882 43.6834 36.2412V13.7588C43.6834 11.2118 41.6186 9.14706 39.0716 9.14706H10.8765Z" fill="white"/>
<path d="M25.0631 20.4603C24.5046 20.4603 24.1233 20.2141 23.9191 19.7217C23.8591 19.5716 23.8291 19.4064 23.8291 19.2263C23.8291 18.6558 24.0783 18.2685 24.5767 18.0643C24.7268 18.0043 24.8889 17.9743 25.0631 17.9743C25.4113 17.9743 25.7026 18.0944 25.9368 18.3346C26.177 18.5688 26.2971 18.866 26.2971 19.2263C26.2971 19.5806 26.177 19.8778 25.9368 20.118C25.7086 20.3462 25.4173 20.4603 25.0631 20.4603ZM22.9193 31.9177C22.7632 31.9177 22.6851 31.7345 22.6851 31.3682C22.6851 31.08 22.7302 30.8878 22.8202 30.7917C22.9103 30.6957 22.9884 30.6476 23.0544 30.6476H23.1445C23.8471 30.6476 24.2434 30.5786 24.3335 30.4405C24.3635 30.3984 24.3785 30.3474 24.3785 30.2873V24.2884H22.7932C22.6191 24.2824 22.502 24.1293 22.4419 23.8291C22.4299 23.745 22.4239 23.6579 22.4239 23.5678C22.4239 23.2916 22.505 23.1235 22.6671 23.0634C22.8292 22.9974 23.0424 22.9433 23.3066 22.9013C23.5708 22.8593 23.8471 22.8262 24.1353 22.8022C24.6878 22.7542 25.2192 22.7272 25.7296 22.7211H25.7386C25.9908 22.7211 26.1229 22.9764 26.1349 23.4868V30.6476H27.6482C27.8043 30.6476 27.8824 30.8308 27.8824 31.1971C27.8824 31.4853 27.8373 31.6775 27.7473 31.7735C27.6572 31.8696 27.5791 31.9177 27.5131 31.9177H22.9193Z" fill="white"/>
</svg>
